<?xml version="1.0" encoding="UTF-8"?>
<svg id="_图层_1" xmlns="http://www.w3.org/2000/svg" version="1.1" viewBox="0 0 600 600">
  <!-- Generator: Adobe Illustrator 29.8.1, SVG Export Plug-In . SVG Version: 2.1.1 Build 2)  -->
  <defs>
    <style>
      .st0 {
        fill: #3369e7;
      }
    </style>
  </defs>
  <path class="st0" d="M165.02,293.83h.01c36.86-23.82,79.64-36.41,123.72-36.41,5.52,0,11.06.2,16.58.6-12.68-61.66-52.68-113.98-109.42-142.55-69.23,34.92-113.69,106.78-113.69,184.54,0,23.26,3.77,45.86,11.24,67.42,17.9-29.53,42.31-54.7,71.56-73.6Z"/>
  <path class="st0" d="M383.75,184.16c-11.5,0-20.85,9.35-20.85,20.85s9.35,20.85,20.85,20.85,20.85-9.35,20.85-20.85-9.35-20.85-20.85-20.85Z"/>
  <path class="st0" d="M288.75,93.48h0c-23.27,0-45.87,3.77-67.44,11.24,25.27,15.35,47.54,35.59,65.22,59.43,22.77,30.7,37.53,66.9,42.69,104.67.46,3.37-.68,6.75-3.08,9.16-2.4,2.4-5.79,3.54-9.16,3.08-9.3-1.27-18.8-1.91-28.23-1.91-77.75,0-149.62,44.45-184.54,113.69,20.69,41.04,54.73,74.28,96.34,93.96,27.66,13.09,57.33,19.72,88.19,19.72,79.48,0,152.81-46.45,186.81-118.33,13.09-27.66,19.72-57.34,19.72-88.19,0-113.88-92.65-206.53-206.53-206.53ZM383.75,247.59c-23.48,0-42.59-19.1-42.59-42.59s19.1-42.59,42.59-42.59,42.59,19.1,42.59,42.59-19.1,42.59-42.59,42.59Z"/>
  <path class="st0" d="M519.11,202.69c-12.59-29.77-30.62-56.51-53.57-79.46h0c-22.96-22.96-49.69-40.98-79.46-53.57-30.83-13.04-63.57-19.65-97.31-19.65s-66.49,6.61-97.31,19.65c-29.77,12.59-56.51,30.62-79.46,53.57-22.96,22.96-40.98,49.69-53.57,79.46-13.04,30.83-19.65,63.57-19.65,97.31s6.61,66.49,19.65,97.31c12.59,29.77,30.62,56.51,53.57,79.46,22.96,22.96,49.69,40.98,79.46,53.57,30.83,13.04,63.57,19.65,97.31,19.65s66.49-6.61,97.31-19.65c29.77-12.59,56.51-30.62,79.46-53.57,22.96-22.96,40.98-49.69,53.57-79.46,13.04-30.83,19.65-63.57,19.65-97.31s-6.61-66.49-19.65-97.31ZM288.75,528.28c-125.87,0-228.27-102.4-228.27-228.27s102.4-228.27,228.27-228.27,228.27,102.4,228.27,228.27-102.4,228.27-228.27,228.27Z"/>
</svg>