<?xml version="1.0" encoding="UTF-8"?>
<svg id="_图层_1" data-name=" 图层 1" xmlns="http://www.w3.org/2000/svg" viewBox="0 0 540.13 99.92">
  <defs>
    <style>
      .cls-1 {
        fill: #3369e7;
      }
    </style>
  </defs>
  <path class="cls-1" d="M25.25,48.73h0c7.37-4.76,15.93-7.28,24.74-7.28,1.1,0,2.21.04,3.32.12-2.54-12.32-10.54-22.78-21.88-28.49-13.85,6.98-22.74,21.34-22.74,36.88,0,4.65.75,9.16,2.25,13.47,3.58-5.9,8.46-10.93,14.31-14.71Z"/>
  <ellipse class="cls-1" cx="69" cy="30.98" rx="4.17" ry="4.17"/>
  <path class="cls-1" d="M50,8.69h0c-4.65,0-9.17.76-13.49,2.25,5.05,3.07,9.51,7.11,13.04,11.88,4.55,6.14,7.51,13.37,8.54,20.92.09.67-.14,1.35-.62,1.83-.48.48-1.16.71-1.83.62-1.86-.25-3.76-.38-5.65-.38-15.55,0-29.92,8.88-36.91,22.72,4.14,8.2,10.95,14.84,19.27,18.78,5.53,2.62,11.47,3.94,17.64,3.94,15.9,0,30.56-9.28,37.36-23.65,2.62-5.53,3.94-11.46,3.94-17.62,0-22.76-18.53-41.27-41.31-41.27ZM69,39.49c-4.7,0-8.52-3.82-8.52-8.51s3.82-8.51,8.52-8.51,8.52,3.82,8.52,8.51-3.82,8.51-8.52,8.51Z"/>
  <path class="cls-1" d="M85.36,14.63c-4.59-4.59-9.94-8.19-15.89-10.71-6.17-2.61-12.71-3.93-19.46-3.93s-13.3,1.32-19.46,3.93c-5.95,2.52-11.3,6.12-15.89,10.71-4.59,4.59-8.2,9.93-10.71,15.88-2.61,6.16-3.93,12.7-3.93,19.45s1.32,13.29,3.93,19.45c2.52,5.95,6.12,11.29,10.71,15.88,4.59,4.59,9.94,8.19,15.89,10.71,6.17,2.61,12.71,3.93,19.46,3.93s13.3-1.32,19.46-3.93c5.95-2.52,11.3-6.12,15.89-10.71,4.59-4.59,8.2-9.93,10.71-15.88,2.61-6.16,3.93-12.7,3.93-19.45s-1.32-13.29-3.93-19.45c-2.52-5.95-6.12-11.29-10.71-15.88ZM50,95.58c-25.17,0-45.65-20.46-45.65-45.62S24.83,4.34,50,4.34s45.65,20.46,45.65,45.62-20.48,45.62-45.65,45.62Z"/>
  <path class="cls-1" d="M170.18,27.71c-2.07-2.71-4.86-4.65-8.37-5.83-3.51-1.18-7.47-1.77-11.87-1.77h-19.55v59.63h11.91v-21.16h7.97c4.29,0,8.17-.7,11.63-2.09,3.46-1.39,6.22-3.55,8.29-6.48,2.07-2.92,3.1-6.64,3.1-11.15s-1.03-8.44-3.1-11.14ZM158.59,46.58c-2.01,1.72-5.06,2.58-9.13,2.58h-7.16v-19.55h6.76c4.13,0,7.25.68,9.37,2.05,2.12,1.37,3.18,3.77,3.18,7.2s-1.01,6.01-3.02,7.73Z"/>
  <path class="cls-1" d="M190.49,20.11l-19.07,59.63h12.07l4.2-15.29h19.24l4.16,15.29h12.55l-19.07-59.63h-14.08ZM190.23,55.19l1.79-6.52c.86-3.11,1.73-6.33,2.62-9.66.89-3.33,1.7-6.6,2.45-9.82h.32c.91,3.17,1.78,6.42,2.62,9.78.83,3.35,1.7,6.59,2.62,9.7l1.77,6.52h-14.18Z"/>
  <path class="cls-1" d="M262.75,55.23c3.38-1.31,6.06-3.38,8.05-6.2,1.98-2.82,2.98-6.42,2.98-10.82s-.99-8.17-2.98-10.82c-1.99-2.66-4.67-4.53-8.05-5.63-3.38-1.1-7.19-1.65-11.43-1.65h-20.68v59.63h11.91v-22.53h8.25l12.19,22.53h13.36l-13.92-24.39c.11-.04.21-.07.32-.11ZM242.56,29.6h7.73c3.86,0,6.8.63,8.81,1.89,2.01,1.26,3.02,3.5,3.02,6.72s-1.01,5.55-3.02,7.16c-2.01,1.61-4.95,2.41-8.81,2.41h-7.73v-18.19Z"/>
  <path class="cls-1" d="M317.63,55.23c3.38-1.31,6.06-3.38,8.05-6.2,1.98-2.82,2.98-6.42,2.98-10.82s-.99-8.17-2.98-10.82c-1.99-2.66-4.67-4.53-8.05-5.63-3.38-1.1-7.19-1.65-11.43-1.65h-20.68v59.63h11.91v-22.53h8.25l12.19,22.53h13.36l-13.92-24.39c.11-.04.21-.07.32-.11ZM297.44,29.6h7.73c3.86,0,6.8.63,8.81,1.89,2.01,1.26,3.02,3.5,3.02,6.72s-1.01,5.55-3.02,7.16c-2.01,1.61-4.95,2.41-8.81,2.41h-7.73v-18.19Z"/>
  <path class="cls-1" d="M377.99,22.72c-3.97-2.44-8.61-3.66-13.92-3.66s-9.89,1.21-13.88,3.62c-4,2.41-7.12,5.9-9.37,10.46-2.25,4.56-3.38,10.06-3.38,16.5s1.13,12.07,3.38,16.74c2.25,4.67,5.38,8.25,9.37,10.74,4,2.49,8.62,3.74,13.88,3.74s9.95-1.25,13.92-3.74c3.97-2.49,7.08-6.08,9.34-10.74,2.25-4.67,3.38-10.25,3.38-16.74s-1.13-11.92-3.38-16.46c-2.25-4.53-5.37-8.02-9.34-10.46ZM376.78,60.7c-1.18,3.14-2.86,5.57-5.03,7.28-2.17,1.72-4.73,2.58-7.68,2.58s-5.51-.86-7.68-2.58c-2.17-1.72-3.84-4.14-4.99-7.28-1.15-3.14-1.73-6.83-1.73-11.06s.58-7.87,1.73-10.9c1.15-3.03,2.82-5.36,4.99-7,2.17-1.64,4.73-2.45,7.68-2.45s5.51.82,7.68,2.45c2.17,1.64,3.85,3.97,5.03,7,1.18,3.03,1.77,6.67,1.77,10.9s-.59,7.93-1.77,11.06Z"/>
  <polygon class="cls-1" points="394.56 30.08 411.3 30.08 411.3 79.73 423.21 79.73 423.21 30.08 440.03 30.08 440.03 20.11 394.56 20.11 394.56 30.08"/>
  <path class="cls-1" d="M502.47,53.98c0,4.13-.47,7.4-1.41,9.82-.94,2.41-2.27,4.14-3.98,5.19-1.72,1.05-3.76,1.57-6.12,1.57s-4.39-.52-6.08-1.57c-1.69-1.05-2.99-2.78-3.9-5.19-.91-2.41-1.37-5.69-1.37-9.82V20.11h-11.83v32.83c0,4.94.51,9.17,1.53,12.71,1.02,3.54,2.53,6.44,4.55,8.69,2.01,2.25,4.44,3.9,7.28,4.95,2.84,1.05,6.12,1.57,9.82,1.57s6.81-.52,9.66-1.57c2.84-1.05,5.26-2.7,7.24-4.95,1.98-2.25,3.49-5.15,4.51-8.69,1.02-3.54,1.53-7.78,1.53-12.71V20.11h-11.43v33.88Z"/>
  <rect class="cls-1" x="528.22" y="20.11" width="11.91" height="59.63"/>
</svg>